{"asset":{"generator":"3D Builder","version":"2.0"},"scene":0,"scenes":[{"nodes":[0]}],"nodes":[{"mesh":0,"matrix":[49.999992370605469,0,0,0,0,-5.9604635680443607E-6,-49.999984741210938,0,0,49.999984741210938,-5.9604635680443607E-6,0,3.9818687014303578E-8,1.4533992498400039E-7,-1.840326717683638E-7,1]}],"meshes":[{"primitives":[{"attributes":{"POSITION":0,"TEXCOORD_0":1},"mode":4,"indices":2,"material":0}]}],"materials":[{"pbrMetallicRoughness":{"baseColorFactor":[1,1,1,1],"metallicFactor":0,"roughnessFactor":1,"baseColorTexture":{"index":0,"texCoord":0}},"alphaMode":"OPAQUE"}],"textures":[{"source":0,"sampler":0}],"images":[{"uri":"ball_texture.png"}],"samplers":[{"magFilter":9729,"wrapS":10497,"wrapT":10497}],"accessors":[{"bufferView":0,"byteOffset":0,"count":2562,"componentType":5126,"type":"VEC3","min":[-0.020000003278255463,-0.019999997690320015,-0.019999995827674866],"max":[0.020000001415610313,0.019999990239739418,0.019999992102384567]},{"bufferView":1,"byteOffset":0,"count":2562,"componentType":5126,"type":"VEC2"},{"bufferView":2,"byteOffset":0,"count":15360,"componentType":5125,"type":"SCALAR"}],"bufferViews":[{"buffer":0,"byteOffset":0,"byteLength":30744,"byteStride":12,"target":34962},{"buffer":0,"byteOffset":30744,"byteLength":20496,"byteStride":8,"target":34962},{"buffer":0,"byteOffset":51240,"byteLength":61440,"target":34963}],"buffers":[{"byteLength":112680,"uri":"ball.bin"}]}