{"asset":{"generator":"3D Builder","version":"2.0"},"scene":0,"scenes":[{"nodes":[0]}],"nodes":[{"mesh":0,"matrix":[0.012499992735683918,0,0,0,0,-1.4901152534108064E-9,-0.012499990873038769,0,0,0.012499990873038769,-1.4901152534108064E-9,0,-0.00025113989249803126,-0.00012499987496994436,0.00025315495440736413,1]}],"meshes":[{"primitives":[{"attributes":{"POSITION":0},"mode":4,"indices":1,"material":0}]}],"materials":[{"name":"Green","pbrMetallicRoughness":{"baseColorFactor":[0.015208514407277107,0.49693304300308228,0.072271861135959625,1],"metallicFactor":0,"roughnessFactor":1}}],"accessors":[{"bufferView":0,"byteOffset":0,"count":2562,"componentType":5126,"type":"VEC3","min":[9.1197005531284958E-5,0.00025229901075363159,-0.010000000707805157],"max":[0.040091205388307571,0.040252301841974258,0.030000001192092896]},{"bufferView":1,"byteOffset":0,"count":15360,"componentType":5125,"type":"SCALAR"}],"bufferViews":[{"buffer":0,"byteOffset":0,"byteLength":30744,"byteStride":12,"target":34962},{"buffer":0,"byteOffset":30744,"byteLength":61440,"target":34963}],"buffers":[{"byteLength":92184,"uri":"ball.bin"}]}