{"asset":{"generator":"3D Builder","version":"2.0"},"scene":0,"scenes":[{"nodes":[0]}],"nodes":[{"mesh":0,"matrix":[3.473006010055542,0,0,0,0,-4.140145790643146E-7,-3.4730055332183838,0,0,3.4730055332183838,-4.140145790643146E-7,0,0,0.034730054438114166,-4.1401455597167569E-9,1]}],"meshes":[{"primitives":[{"attributes":{"POSITION":0,"TEXCOORD_0":1},"mode":4,"indices":2,"material":0}]}],"materials":[{"pbrMetallicRoughness":{"baseColorFactor":[1,1,1,1],"metallicFactor":0,"roughnessFactor":1,"baseColorTexture":{"index":0,"texCoord":0}}}],"textures":[{"source":0,"sampler":0}],"images":[{"uri":"ball_texture.png"}],"samplers":[{"magFilter":9729,"wrapS":10497,"wrapT":10497}],"accessors":[{"bufferView":0,"byteOffset":0,"count":12,"componentType":5126,"type":"VEC3","min":[-0.028793502599000931,-0.02500000037252903,-0.010000000707805157],"max":[0.028793502599000931,0.02500000037252903,0.005488930270075798]},{"bufferView":1,"byteOffset":0,"count":12,"componentType":5126,"type":"VEC2"},{"bufferView":2,"byteOffset":0,"count":60,"componentType":5125,"type":"SCALAR"}],"bufferViews":[{"buffer":0,"byteOffset":0,"byteLength":144,"byteStride":12,"target":34962},{"buffer":0,"byteOffset":144,"byteLength":96,"byteStride":8,"target":34962},{"buffer":0,"byteOffset":240,"byteLength":240,"target":34963}],"buffers":[{"byteLength":480,"uri":"octagon.bin"}]}